<svg xmlns="http://www.w3.org/2000/svg" version="1.1" xmlns:xlink="http://www.w3.org/1999/xlink" xmlns:svgjs="http://svgjs.dev/svgjs" width="1500" height="1500" viewBox="0 0 1500 1500"><rect width="1500" height="1500" fill="#000000"></rect><g transform="matrix(0.6666666666666666,0,0,0.6666666666666666,250.83960294754542,246.40809716599188)"><svg viewBox="0 0 245 247" data-background-color="#7d4e38" preserveAspectRatio="xMidYMid meet" height="1512" width="1500" xmlns="http://www.w3.org/2000/svg" xmlns:xlink="http://www.w3.org/1999/xlink"><g id="tight-bounds" transform="matrix(1,0,0,1,-0.2057027221486294,-0.09999999999999432)"><svg viewBox="0 0 245.41140544429726 247.2" height="247.2" width="245.41140544429726"><g><svg viewBox="0 0 395.52 398.40260815503177" height="247.2" width="245.41140544429726"><g transform="matrix(1,0,0,1,0,230.7239285307445)"><svg viewBox="0 0 395.52 167.67867962428724" height="167.67867962428724" width="395.52"><g id="textblocktransform"><svg viewBox="0 0 395.52 167.67867962428724" height="167.67867962428724" width="395.52" id="textblock"><g><svg viewBox="0 0 395.52 110.75038403386755" height="110.75038403386755" width="395.52"><g transform="matrix(1,0,0,1,0,0)"><svg width="395.52" viewBox="3 -36.95 165.34 46.30000000000001" height="110.75038403386755" data-palette-color="#ffffff"><path d="M10.3-3.75L10.3 9.35 3 9.35 3-25.35 10.3-25.35 10.3-21.45Q12.95-25.65 17.95-25.65L17.95-25.65Q22.85-25.65 25.83-22.18 28.8-18.7 28.8-12.75L28.8-12.75Q28.8-7.1 25.93-3.4 23.05 0.3 17.95 0.3L17.95 0.3Q12.8 0.3 10.3-3.75L10.3-3.75ZM10.3-12.95L10.3-12.95Q10.3-9.7 11.9-7.75 13.5-5.8 16-5.8L16-5.8Q18.4-5.8 19.9-7.63 21.4-9.45 21.4-12.6L21.4-12.6Q21.4-16.05 19.88-17.82 18.35-19.6 16-19.6L16-19.6Q13.7-19.6 12-17.85 10.3-16.1 10.3-12.95ZM42.85-5L42.85-5Q44.4-5 45.25-5.95 46.1-6.9 46.1-8.55L46.1-8.55 46.1-10.4 43.75-10.4Q41.9-10.4 40.9-9.6 39.9-8.8 39.9-7.55L39.9-7.55Q39.9-5 42.85-5ZM46.45 0L46.45-3.1Q44.85 0.15 40.15 0.15L40.15 0.15Q36.45 0.15 34.37-1.95 32.3-4.05 32.3-7.2L32.3-7.2Q32.3-10.85 34.97-12.88 37.65-14.9 42.9-14.9L42.9-14.9 46.1-14.9 46.1-16.65Q46.1-19.85 41.85-19.85L41.85-19.85Q37.75-19.85 34.25-17.55L34.25-17.55 34.25-24.1Q37.25-25.8 42.9-25.8L42.9-25.8Q48.3-25.8 50.95-23.48 53.6-21.15 53.6-16.25L53.6-16.25 53.6 0 46.45 0ZM76.64-7.65L76.64-7.65Q76.64-3.9 73.94-1.85 71.25 0.2 66.8 0.2L66.8 0.2Q62.2 0.2 59.09-1.35L59.09-1.35 59.09-7.85Q62.55-5.45 66.39-5.45L66.39-5.45Q69.14-5.45 69.14-7.2L69.14-7.2Q69.14-7.65 68.89-8.05 68.64-8.45 68.05-8.8 67.44-9.15 66.94-9.38 66.44-9.6 65.5-10 64.55-10.4 64.05-10.65L64.05-10.65Q58.99-13.05 58.99-17.85L58.99-17.85Q58.99-21.55 61.82-23.6 64.64-25.65 68.84-25.65L68.84-25.65Q72.75-25.65 75.34-24.6L75.34-24.6 75.34-18.35Q72.69-19.9 69.14-19.9L69.14-19.9Q67.84-19.9 67.14-19.38 66.44-18.85 66.44-18.05L66.44-18.05Q66.44-17.6 66.69-17.2 66.94-16.8 67.52-16.45 68.09-16.1 68.62-15.83 69.14-15.55 70.07-15.15 71-14.75 71.55-14.45L71.55-14.45Q73.84-13.25 75.25-11.68 76.64-10.1 76.64-7.65ZM98.44-7.65L98.44-7.65Q98.44-3.9 95.74-1.85 93.04 0.2 88.59 0.2L88.59 0.2Q83.99 0.2 80.89-1.35L80.89-1.35 80.89-7.85Q84.34-5.45 88.19-5.45L88.19-5.45Q90.94-5.45 90.94-7.2L90.94-7.2Q90.94-7.65 90.69-8.05 90.44-8.45 89.84-8.8 89.24-9.15 88.74-9.38 88.24-9.6 87.29-10 86.34-10.4 85.84-10.65L85.84-10.65Q80.79-13.05 80.79-17.85L80.79-17.85Q80.79-21.55 83.62-23.6 86.44-25.65 90.64-25.65L90.64-25.65Q94.54-25.65 97.14-24.6L97.14-24.6 97.14-18.35Q94.49-19.9 90.94-19.9L90.94-19.9Q89.64-19.9 88.94-19.38 88.24-18.85 88.24-18.05L88.24-18.05Q88.24-17.6 88.49-17.2 88.74-16.8 89.32-16.45 89.89-16.1 90.42-15.83 90.94-15.55 91.87-15.15 92.79-14.75 93.34-14.45L93.34-14.45Q95.64-13.25 97.04-11.68 98.44-10.1 98.44-7.65ZM110.49-25.35L110.49 0 103.19 0 103.19-25.35 110.49-25.35ZM109.84-35.7Q111.09-34.45 111.09-32.7 111.09-30.95 109.84-29.7 108.59-28.45 106.84-28.45 105.09-28.45 103.84-29.7 102.59-30.95 102.59-32.7 102.59-34.45 103.84-35.7 105.09-36.95 106.84-36.95 108.59-36.95 109.84-35.7ZM140.34-12.8L140.34-12.8Q140.34-7.05 137.06-3.33 133.79 0.4 127.94 0.4L127.94 0.4Q121.99 0.4 118.74-3.18 115.49-6.75 115.49-12.35L115.49-12.35Q115.49-18.2 118.89-21.98 122.29-25.75 127.94-25.75L127.94-25.75Q133.84-25.75 137.09-22.1 140.34-18.45 140.34-12.8ZM124.29-17.95Q123.09-15.9 123.09-12.65 123.09-9.4 124.31-7.33 125.54-5.25 127.99-5.25L127.99-5.25Q130.39-5.25 131.56-7.28 132.74-9.3 132.74-12.55L132.74-12.55Q132.74-20 127.89-20L127.89-20Q125.49-20 124.29-17.95ZM168.34-16.45L168.34 0 161.03 0 161.03-15.1Q161.03-17.35 159.99-18.53 158.94-19.7 157.03-19.7L157.03-19.7Q155.03-19.7 153.71-18.13 152.39-16.55 152.39-13.4L152.39-13.4 152.39 0 145.09 0 145.09-25.35 152.39-25.35 152.39-21.05Q153.34-23.15 155.31-24.38 157.28-25.6 160.03-25.6L160.03-25.6Q163.94-25.6 166.14-23.28 168.34-20.95 168.34-16.45L168.34-16.45Z" opacity="1" transform="matrix(1,0,0,1,0,0)" fill="#ffffff" class="wordmark-text-0" data-fill-palette-color="primary" id="text-0"></path></svg></g></svg></g><g transform="matrix(1,0,0,1,94.92479999999999,136.89589169504686)"><svg viewBox="0 0 205.6704 30.782787929240378" height="30.782787929240378" width="205.6704"><g transform="matrix(1,0,0,1,0,0)"><svg width="205.6704" viewBox="5.35 -42.3 288.28 43.15" height="30.782787929240378" data-palette-color="#ffffff"><path d="M25.2-19.25Q32-17.05 32-10.25L32-10.25Q32-5.05 28.88-2.53 25.75 0 18.45 0L18.45 0 5.35 0 5.35-37.9 18.45-37.9Q25.1-37.9 27.8-35.4 30.5-32.9 30.5-27.75L30.5-27.75Q30.5-24.7 29.23-22.58 27.95-20.45 25.2-19.25L25.2-19.25ZM10.2-33.8L10.2-21.05 18.45-21.05Q25.5-21.05 25.55-27.4L25.55-27.4Q25.55-30.9 24-32.35 22.45-33.8 18.45-33.8L18.45-33.8 10.2-33.8ZM27.05-10.55Q27.05-13.9 24.88-15.43 22.7-16.95 18.45-16.95L18.45-16.95 10.2-16.95 10.2-4.1 18.45-4.1Q23.15-4.1 25.1-5.65 27.05-7.2 27.05-10.55L27.05-10.55ZM43.15-13.45Q43.25-8.85 45.45-6.1 47.65-3.35 52.45-3.35L52.45-3.35Q56.1-3.35 60.45-5.4L60.45-5.4 61.9-1.5Q57.35 0.85 52.05 0.85L52.05 0.85Q47.65 0.85 44.55-1 41.45-2.85 39.85-6.15 38.25-9.45 38.25-13.85L38.25-13.85Q38.25-18.5 39.92-21.78 41.6-25.05 44.45-26.75 47.3-28.45 50.85-28.45L50.85-28.45Q56.3-28.45 59.4-25.05 62.5-21.65 62.5-15.3L62.5-15.3 62.5-13.45 43.15-13.45ZM50.85-24.25Q44.65-24.25 43.45-17.4L43.45-17.4 57.55-17.4Q57.3-20.9 55.65-22.58 54-24.25 50.85-24.25L50.85-24.25ZM81.9-28.45Q87.5-28.45 90.82-24.7 94.15-20.95 94.15-13.8L94.15-13.8Q94.15-6.65 90.82-2.9 87.5 0.85 81.9 0.85L81.9 0.85Q77.85 0.85 73.9-2.5L73.9-2.5 73.9 0 69.2 0 69.2-42.3 73.9-42.3 73.9-25.05Q77.9-28.45 81.9-28.45L81.9-28.45ZM81.25-3.5Q85.2-3.5 87.25-6.13 89.3-8.75 89.3-13.8L89.3-13.8Q89.3-18.85 87.25-21.45 85.2-24.05 81.25-24.05L81.25-24.05Q77.5-24.05 73.9-20.95L73.9-20.95 73.9-6.6Q77.6-3.5 81.25-3.5L81.25-3.5ZM109.99-27.65Q114.39-27.65 116.69-26.18 118.99-24.7 119.74-22.23 120.49-19.75 120.49-16L120.49-16 120.49 0 115.79 0 115.79-2.75Q113.89-0.95 111.99-0.15 110.09 0.65 107.89 0.65L107.89 0.65Q105.29 0.65 103.19-0.48 101.09-1.6 99.87-3.73 98.64-5.85 98.64-8.75L98.64-8.75Q98.64-13.25 101.44-15.73 104.24-18.2 108.99-18.2L108.99-18.2Q112.74-18.2 115.74-16.55L115.74-16.55Q115.69-19 115.24-20.45 114.79-21.9 113.39-22.68 111.99-23.45 109.24-23.45L109.24-23.45 105.54-23.45 105.54-27.65 109.99-27.65ZM108.54-3.4Q110.24-3.4 112.12-4.2 113.99-5 115.79-6.6L115.79-6.6 115.79-12.9Q112.99-14.3 109.69-14.3L109.69-14.3Q107.04-14.3 105.24-13.03 103.44-11.75 103.44-8.75L103.44-8.75Q103.44-5.95 104.97-4.67 106.49-3.4 108.54-3.4L108.54-3.4ZM136.64 0.85Q133.59 0.85 131.24 0.35 128.89-0.15 126.34-1.35L126.34-1.35 126.34-6Q131.09-3.35 136.64-3.35L136.64-3.35Q139.44-3.35 140.67-4.48 141.89-5.6 141.89-7.45L141.89-7.45Q141.89-9.25 140.92-10.1 139.94-10.95 137.74-11.55L137.74-11.55 134.49-12.35Q130.99-13.2 128.99-15.05 126.99-16.9 126.99-20.5L126.99-20.5Q126.99-24.25 129.44-26.35 131.89-28.45 136.64-28.45L136.64-28.45Q139.09-28.45 141.19-27.98 143.29-27.5 145.39-26.65L145.39-26.65 145.39-22.25Q143.34-23.2 141.34-23.73 139.34-24.25 136.79-24.25L136.79-24.25Q134.14-24.25 132.97-23.23 131.79-22.2 131.79-20.65L131.79-20.65Q131.79-18.95 132.81-18.07 133.84-17.2 135.79-16.7L135.79-16.7 139.09-15.95Q141.59-15.35 143.22-14.45 144.84-13.55 145.77-11.93 146.69-10.3 146.69-7.6L146.69-7.6Q146.69-3.55 143.97-1.35 141.24 0.85 136.64 0.85L136.64 0.85ZM190.13-37.9L190.13-33.55 178.74-33.55 178.74 0 173.84 0 173.84-33.55 162.44-33.55 162.44-37.9 190.13-37.9ZM199.83-13.45Q199.93-8.85 202.13-6.1 204.33-3.35 209.13-3.35L209.13-3.35Q212.78-3.35 217.13-5.4L217.13-5.4 218.58-1.5Q214.03 0.85 208.73 0.85L208.73 0.85Q204.33 0.85 201.23-1 198.13-2.85 196.53-6.15 194.93-9.45 194.93-13.85L194.93-13.85Q194.93-18.5 196.61-21.78 198.28-25.05 201.13-26.75 203.98-28.45 207.53-28.45L207.53-28.45Q212.98-28.45 216.08-25.05 219.18-21.65 219.18-15.3L219.18-15.3 219.18-13.45 199.83-13.45ZM207.53-24.25Q201.33-24.25 200.13-17.4L200.13-17.4 214.23-17.4Q213.98-20.9 212.33-22.58 210.68-24.25 207.53-24.25L207.53-24.25ZM234.38-27.65Q238.78-27.65 241.08-26.18 243.38-24.7 244.13-22.23 244.88-19.75 244.88-16L244.88-16 244.88 0 240.18 0 240.18-2.75Q238.28-0.95 236.38-0.15 234.48 0.65 232.28 0.65L232.28 0.65Q229.68 0.65 227.58-0.48 225.48-1.6 224.25-3.73 223.03-5.85 223.03-8.75L223.03-8.75Q223.03-13.25 225.83-15.73 228.63-18.2 233.38-18.2L233.38-18.2Q237.13-18.2 240.13-16.55L240.13-16.55Q240.08-19 239.63-20.45 239.18-21.9 237.78-22.68 236.38-23.45 233.63-23.45L233.63-23.45 229.93-23.45 229.93-27.65 234.38-27.65ZM232.93-3.4Q234.63-3.4 236.5-4.2 238.38-5 240.18-6.6L240.18-6.6 240.18-12.9Q237.38-14.3 234.08-14.3L234.08-14.3Q231.43-14.3 229.63-13.03 227.83-11.75 227.83-8.75L227.83-8.75Q227.83-5.95 229.35-4.67 230.88-3.4 232.93-3.4L232.93-3.4ZM283.73-28.25Q288.78-28.25 291.2-25.55 293.63-22.85 293.63-16.65L293.63-16.65 293.63 0 288.93 0 288.93-16.65Q288.93-20.6 287.65-22.23 286.38-23.85 283.08-23.85L283.08-23.85Q279.18-23.85 275.28-20.1L275.28-20.1Q275.48-18.7 275.48-16.65L275.48-16.65 275.48 0 270.78 0 270.78-16.65Q270.78-20.6 269.5-22.23 268.23-23.85 264.93-23.85L264.93-23.85Q261.13-23.85 257.33-20.45L257.33-20.45 257.33 0 252.63 0 252.63-27.65 257.33-27.65 257.33-24.7Q261.38-28.25 265.58-28.25L265.58-28.25Q268.93-28.25 271.08-27.13 273.23-26 274.33-23.55L274.33-23.55Q278.88-28.25 283.73-28.25L283.73-28.25Z" opacity="1" transform="matrix(1,0,0,1,0,0)" fill="#ffffff" class="slogan-text-1" data-fill-palette-color="secondary" id="text-1"></path></svg></g></svg></g></svg></g></svg></g><g transform="matrix(1,0,0,1,81.65510400000001,0)"><svg viewBox="0 0 232.20979199999996 204.57842086956518" height="204.57842086956518" width="232.20979199999996"><g><svg xmlns="http://www.w3.org/2000/svg" xmlns:xlink="http://www.w3.org/1999/xlink" version="1.1" x="0" y="0" viewBox="6.3 11.5 87.4 77" style="enable-background:new 0 0 100 100;" xml:space="preserve" height="204.57842086956518" width="232.20979199999996" class="icon-icon-0" data-fill-palette-color="accent" id="icon-0"><path d="M72.3 12.3L72.3 12.3 72.3 12.3l-0.4-0.8H28.2L6.3 50l21.8 38.5h43.7L93.7 50 72.3 12.3zM33.3 25.3L9.9 47.7l18.6-32.8L33.3 25.3zM70.7 14.8l6.4 35.7L36.9 25.8 70.7 14.8zM35.5 27.3l41 25.2-41 23.3V27.3zM77 54.5l-7.2 30.8-32.6-8.1L77 54.5zM33.5 75L9.9 50.5l23.6-22.7V75zM33.2 77.6l-4.6 7.7L11.5 55.1 33.2 77.6zM35 78.6l31.4 7.9H30.2L35 78.6zM79.3 53.3l11.6-2.5L72.1 84 79.3 53.3zM90.7 48.9l-11.4 2.5-5.9-33.1L90.7 48.9zM35 24.3l-5-10.8h38.2L35 24.3z" fill="#ffffff" data-fill-palette-color="accent"></path></svg></g></svg></g><g></g></svg></g><defs></defs></svg><rect width="245.41140544429726" height="247.2" fill="none" stroke="none" visibility="hidden"></rect></g></svg></g></svg>